# xmcd CD database file
#
# Track frame offsets:
#	150
#	19226
#	40084
#	64530
#	80261
#	94969
#	111090
#	130147
#	137945
#	152453
#	170861
#	195185
#	215619
#	230035
#	245282
#	263137
#	280068
#
# Disc length: 3938 seconds
#
# Revision: 0
# Processed by: cddbd v1.4PL0 Copyright (c) Steve Scherf et al.
# Submitted via: CdAid (MTCDDB.DLL V2003.01.23)
#
DISCID=e90f6011
DTITLE=Vários - Selección Made in Cuba
DYEAR=2001
DGENRE=Latin
TTITLE0=Descarga nº 2
TTITLE1=Chan chan
TTITLE2=Camino de Zaza
TTITLE3=La Mamaracha
TTITLE4=Camisa sin botones
TTITLE5=Maria Cristina
TTITLE6=Caserita Vendo Agua
TTITLE7=Nengón para ti
TTITLE8=Carolina
TTITLE9=Esto te pone la cabeza mala
TTITLE10=Mi salsa tiene sandunga
TTITLE11=A la hora que me llamen, voy
TTITLE12=Pio mentiroso
TTITLE13=El melón
TTITLE14=Que humanidad
TTITLE15=Échale Salsita
TTITLE16=Una semana sin ti
EXTD=YEAR: 2001 ID3G:  17 
EXTT0=Pepesito Reyes
EXTT1=Eliades Ochoa y el cuarteto Patria
EXTT2=El Jilguero
EXTT3=Los Guanches
EXTT4=Orquesta de Julio Cuevas
EXTT5=Vieja Trova Santiaguera
EXTT6=Hermanas Ferrín
EXTT7=La familia Varela Miranda
EXTT8=Orquesta Gigante de Chepin
EXTT9=Los Van van
EXTT10=Elio Reve
EXTT11=Cándido faré
EXTT12=Pio Leyva
EXTT13=La Tumbita Criolla
EXTT14=Eliades Ochoa y el cuarteto Patria
EXTT15=Celeste Mendoza
EXTT16=Elena Burke
PLAYORDER=
